<svg xmlns="http://www.w3.org/2000/svg" width="373.643" height="845.178" viewBox="0 0 373.643 845.178">
    <path data-name="Exclusion 3" d="M-17994.291-5859.411h-224v-845.178h224v111.575l-1.012.315v2.048l1.012.167v-2.531l10.039-3.137.9.549.25 3.452a12.05 12.05 0 0 1 3.762-3.2 8.259 8.259 0 0 1 3.838-.8 7.253 7.253 0 0 1 5.4 2.131 8.781 8.781 0 0 1 2.145 6.218v6.3c0 2.153 0 5.1.051 7.5l2.1.448v2.55h-13.85v-2.551l2.156-.5c.051-2.4.051-5.32.051-7.453v-5.651c0-2.626-.631-3.649-2.25-3.649a6.259 6.259 0 0 0-3.25 1.3v8c0 2.153 0 5.1.043 7.549l1.9.4v2.551h-13.289v-2.672l1.791-.428c.049-2.4.049-5.292.049-7.4v-3.1c0-2.633-.043-3.514-.131-5.27l-.018-.331-1.691-.281v16.812l-.508.121v2.557h.508v711.586zm-13.809-714.34c.883 2.39 2.8 3.551 5.848 3.551 3.568 0 5.512-1.232 6.7-4.252l-1.449-.8c-.613.921-.961 1.1-1.354 1.1a.787.787 0 0 1-.846-.85v-11.449c0-3.538-.678-5.9-2.137-7.422-1.488-1.556-3.812-2.281-7.314-2.281-3.85 0-7 .7-9.121 2.038a6.054 6.054 0 0 0-3.084 5.265 3.572 3.572 0 0 0 3.8 2.7 3.622 3.622 0 0 0 2.859-1.281 6.573 6.573 0 0 0 1.242-4.32v-1.7h.75c3.225 0 3.8 1.466 3.8 5.6v1.8l-1.059.28c-.8.213-1.459.388-1.988.52-3.969 1.053-6.562 2.217-8.162 3.663a6.137 6.137 0 0 0-2.084 4.938 6.452 6.452 0 0 0 1.766 4.764 6.611 6.611 0 0 0 4.73 1.688c3.6 0 5.15-1.406 7.1-3.551zm-57.65-22.4c-5.482 0-11.154 4.938-11.154 13.2 0 4.01 1 7.316 2.891 9.563a8.88 8.88 0 0 0 7.016 3.188 9.305 9.305 0 0 0 7-2.9l.445 2.7 10.605-.6v-2.551l-1.8-.448v-25.554l.2-6.95-.846-.549-11.7 2.25v2.25l3.2.5v8.2a7.585 7.585 0 0 0-5.857-2.298zm17 .8v2.35l2.4.5 8.9 21.5h4.5l8.248-21.5 3-.5v-2.35h-9.4v2.35l2.75.549-3.852 11.549-4.15-11.5 2.652-.6v-2.35zm-52.95 15.351h9.447l1.8 5.7-3.451.5v2.8h16.156v-2.8l-2.7-.3-10.1-29.5h-6l-10 29.1-3.945.549v2.951h10.5v-2.954l-3.445-.6 1.75-5.449zm193.047 20.1c-3.965 0-6.887-.607-8.687-1.805a4.517 4.517 0 0 1-2.164-3.942c0-2.078 1.369-3.836 3.852-4.952a4.339 4.339 0 0 1-2.8-4.1c0-2.375 1.3-4.551 4.1-6.849a7.085 7.085 0 0 1-4.1-6.547 7.1 7.1 0 0 1 2.561-5.677c1.91-1.576 4.764-2.375 8.484-2.375 3.7 0 6.658.83 8.551 2.4l5.6-2.551.8.5v4.147h-4.7a7.571 7.571 0 0 1 .8 3.553 6.893 6.893 0 0 1-2.561 5.522c-1.93 1.575-4.785 2.374-8.488 2.374a17.421 17.421 0 0 1-4.9-.6 4.312 4.312 0 0 0-.352 1.9c0 1.162.975 1.751 2.9 1.751h5.551c4 0 6.957.725 8.789 2.154a6.491 6.491 0 0 1 2.41 5.495 7.407 7.407 0 0 1-1.01 3.778 9.2 9.2 0 0 1-2.988 3.046c-2.77 1.817-6.795 2.778-11.645 2.778zm-5.3-9.6a5.023 5.023 0 0 0-.4 2.249c0 2.875 2.021 4.1 6.756 4.1a12.939 12.939 0 0 0 5.441-.939 2.7 2.7 0 0 0 1.8-2.362c0-1.185-.826-2.451-3.148-2.451h-5a18.887 18.887 0 0 1-5.445-.597zm6.547-24.151c-1.791 0-2.7 1.834-2.7 5.45 0 3.8.832 5.5 2.7 5.5a2.249 2.249 0 0 0 2.154-1.438 9.687 9.687 0 0 0 .648-4.062c.004-3.564-.964-5.448-2.796-5.448zm50.8 23.451a17.118 17.118 0 0 1-9.2-2.451l.246-6.4h4.555l.8 5.2a9.534 9.534 0 0 0 3.6.7 5.772 5.772 0 0 0 2.938-.587 2.156 2.156 0 0 0 1.063-2.01c0-1.334-.678-2.344-4.051-3.251l-2.848-.75a7.528 7.528 0 0 1-6.055-7.75 7.733 7.733 0 0 1 2.877-6.2 12.978 12.978 0 0 1 8.275-2.45 18.445 18.445 0 0 1 8.3 2l-.4 5.651h-4.6l-1.1-4.448a10.568 10.568 0 0 0-2.455-.252c-2.066 0-3.35.978-3.35 2.551 0 1.139.682 2.084 4 3l2.8.75a9.182 9.182 0 0 1 5.02 2.938 7.64 7.64 0 0 1 1.531 4.962 7.614 7.614 0 0 1-3.238 6.613c-2.051 1.449-4.981 2.184-8.702 2.184zm-22.5 0a14.953 14.953 0 0 1-5.193-.879 11.69 11.69 0 0 1-4.117-2.553 12.962 12.962 0 0 1-3.689-9.622 12.224 12.224 0 0 1 4.27-9.675 14.382 14.382 0 0 1 9.178-3.224 10.491 10.491 0 0 1 8.057 3.207 11.289 11.289 0 0 1 2.691 7.744 11.155 11.155 0 0 1-.246 2.651h-13.9c.441 4.351 2.74 6.95 6.148 6.95a7.907 7.907 0 0 0 5.7-2.35l1.947 1.9a10.375 10.375 0 0 1-4.375 4.445 13.842 13.842 0 0 1-6.465 1.406zm-.15-23.25c-1.811 0-2.715 2.557-2.85 8.047h2.35c2.365 0 3.049-.75 3.049-3.347.007-2.94-.947-4.698-2.543-4.698zm-46.65 23.25c-3.051 0-4.963-1.162-5.848-3.553-1.951 2.146-3.5 3.553-7.1 3.553a6.606 6.606 0 0 1-4.73-1.688 6.442 6.442 0 0 1-1.773-4.764 6.134 6.134 0 0 1 2.092-4.938c1.6-1.446 4.2-2.609 8.162-3.662.52-.13 1.178-.3 1.873-.489l.123-.033.371-.1.682-.18v-1.8c0-4.13-.572-5.6-3.8-5.6h-.75v1.7a6.555 6.555 0 0 1-1.246 4.32 3.616 3.616 0 0 1-2.855 1.281 3.566 3.566 0 0 1-3.8-2.7 6.056 6.056 0 0 1 3.084-5.265c2.115-1.333 5.268-2.038 9.115-2.038 3.5 0 5.824.725 7.313 2.281 1.459 1.524 2.137 3.882 2.137 7.421V-6575a.791.791 0 0 0 .854.85c.391 0 .736-.18 1.348-1.1l1.455.8c-1.19 3.02-3.131 4.25-6.701 4.25zm-6.152-13.5a8.539 8.539 0 0 0-1.447.548 5.475 5.475 0 0 0-3.252 4.952c0 2.25 1 3.648 2.6 3.648.447 0 .895-.147 2.1-.951zm-21.949 13.5c-2.584 0-4.465-.563-5.754-1.72-1.377-1.235-2.047-3.11-2.047-5.732 0-.881.012-1.67.023-2.434V-6580.547c.012-.769.021-1.564.021-2.455v-8.6h-2.848v-3.3l3.4-.448 3-7.1h5.949v7.1h4.6v3.749h-4.6v13.4c0 2.067.918 3.3 2.453 3.3a3.931 3.931 0 0 0 2.449-1l1.248 1.152c-1.412 3.063-3.996 4.549-7.887 4.549zm-56.5-4.353c-1.605 0-2.6-1.4-2.6-3.648a5.476 5.476 0 0 1 3.252-4.952 8.376 8.376 0 0 1 1.449-.549v8.2c-1.199.802-1.647.951-2.094.951zm-51.8-.6a3.711 3.711 0 0 1-3.26-2.056 11.8 11.8 0 0 1-1.24-5.845 12.216 12.216 0 0 1 1.32-6.23 3.857 3.857 0 0 1 3.381-2.068 3.792 3.792 0 0 1 1.852.448v15.2a4.077 4.077 0 0 1-2.046.554zm-30.895-8h-7.5l3.8-11.847 3.7 11.845z" transform="translate(18218.293 6704.589)" style="fill:#4663bf"/>
</svg>
