<svg xmlns="http://www.w3.org/2000/svg" width="133.504" height="211.297" viewBox="0 0 133.504 211.297">
    <g data-name="Group 209">
        <path data-name="Line 28" transform="translate(6.963 210.647)" style="stroke:#284356;stroke-linecap:round;stroke-linejoin:round;stroke-width:1.3px;fill:#257f89" d="M0 0h119.494"/>
        <g data-name="Group 205">
            <path data-name="Rectangle 74" transform="rotate(-66.634 40.817 25.898)" style="fill:#fff;stroke:#284356;stroke-linecap:round;stroke-linejoin:round;stroke-width:1.3px" d="M0 0h40.587v40.42H0z"/>
            <path data-name="Path 415" d="m679.464 366.488-2.164-5.457-3.275 1.3 2.166 5.457.987-2.286z" transform="translate(-641.606 -302.62)" style="fill:#ec8658"/>
            <path data-name="Path 416" d="m671.176 364.252 3.866-1.534-1.3-3.274-3.87 1.533 2.288.988z" transform="translate(-642.621 -303.009)" style="fill:#ec8658"/>
            <path data-name="Path 417" d="M679.664 361.511a4.081 4.081 0 1 1-2.127-5.365 4.082 4.082 0 0 1 2.127 5.365z" transform="translate(-642.142 -303.898)" style="fill:#ec8658"/>
            <path data-name="Path 418" d="M677.14 360.167a1.817 1.817 0 1 1-.946-2.389 1.815 1.815 0 0 1 .946 2.389z" transform="translate(-641.696 -303.453)" style="fill:#fff;stroke:#284356;stroke-linecap:round;stroke-linejoin:round;stroke-width:1.3px"/>
            <path data-name="Line 29" transform="translate(19.739 23.563)" style="fill:none;stroke:#284356;stroke-linecap:round;stroke-linejoin:round;stroke-width:1.3px" d="m0 0 26.784 11.573"/>
            <path data-name="Line 30" transform="translate(16.868 30.206)" style="fill:none;stroke:#284356;stroke-linecap:round;stroke-linejoin:round;stroke-width:1.3px" d="m0 0 26.786 11.573"/>
            <path data-name="Line 31" transform="translate(9.105 44.045)" style="fill:none;stroke:#284356;stroke-linecap:round;stroke-linejoin:round;stroke-width:1.3px" d="m0 0 16.711 7.22"/>
            <path data-name="Line 32" transform="translate(7.673 47.36)" style="fill:none;stroke:#284356;stroke-linecap:round;stroke-linejoin:round;stroke-width:1.3px" d="m0 0 9.377 4.051"/>
        </g>
        <path data-name="Path 419" d="M671.584 368.139c-.08-.148-2.4-1.379-2.3-2.433.222-2.112 2.325-5.083 2.3-5.729a2.816 2.816 0 0 0-2.931-1.847 10.046 10.046 0 0 0-5.215 4.177c-1.612 3.107-1.138 10.283-1.138 10.283l8.152 1.09z" transform="translate(-644.492 -303.338)" style="fill:#f4cfb3;stroke:#284356;stroke-linecap:round;stroke-linejoin:round;stroke-width:1.3px"/>
        <path data-name="Path 420" d="M739.277 353.358a5.992 5.992 0 0 0 1.2-1.629c1.048-1.848 1.063-5.488 1.461-6a2.815 2.815 0 0 1 3.458.2 10.033 10.033 0 0 1 1.82 6.429c-.493 3.465-5.044 9.032-5.044 9.032l-5.448-2.547" transform="translate(-626.262 -306.487)" style="fill:#f4cfb3;stroke:#284356;stroke-linecap:round;stroke-linejoin:round;stroke-width:1.3px"/>
        <path data-name="Path 421" d="M716.725 406.532s6.737 3.44 14.287-7.133c0 0 5.713-8.117 11.437-22.638 5.1-12.953 6.9-19 6.9-19l-9.338-2.452a97.879 97.879 0 0 1-11.115 23.965c-6.048 9.15-7.733 9.454-7.733 9.454z" transform="translate(-631.156 -304.02)" style="fill:#fff;stroke:#284356;stroke-linecap:round;stroke-linejoin:round;stroke-width:1.3px"/>
        <path data-name="Path 422" d="M707.068 399.548s-21.734 8.882-35.531.81c-12.017-7.032-9.853-31-9.853-31l9.647 1.22s.139 19.031 9.126 18.474a60.854 60.854 0 0 0 15.433-2.952z" transform="translate(-644.663 -300.581)" style="fill:#fff;stroke:#284356;stroke-linecap:round;stroke-linejoin:round;stroke-width:1.3px"/>
        <path data-name="Path 423" d="M708.355 474.11v11.963h6.231v-2.727s1.084 2.727 3.591 2.727h10.986s.426-4.487-2.087-5.237-8.879-1.118-10.554-5.981L714.844 470z" transform="translate(-633.205 -275.953)" style="fill:#284356"/>
        <path data-name="Path 424" d="M701.365 474.11v11.963h-6.229v-2.727s-1.089 2.727-3.594 2.727h-10.986s-.426-4.487 2.089-5.237 8.88-1.118 10.553-5.981l1.678-4.855z" transform="translate(-640.014 -275.953)" style="fill:#284356"/>
        <path data-name="Path 425" d="m706.74 429.982.831-7.959-18.69-5.558.717 73.946 10.429.936 6.19-50.392 5.964 50.392h9.887l1.869-63.7z" transform="translate(-637.97 -289.054)" style="fill:#586273;stroke:#284356;stroke-linecap:round;stroke-linejoin:round;stroke-width:1.3px"/>
        <g data-name="Group 206">
            <path data-name="Path 426" d="M690.3 447.7a2.7 2.7 0 0 1-2.659-2.727c0-5.077-.036-30.9-.345-40.581-.093-2.913-1.23-12.533-1.659-16.155l-.073-.63c-.447-3.82 2.433-4.518 3.816-4.854 4.515-1.093 16.352-2.436 16.852-2.492a1.335 1.335 0 0 1 .157 0c.6.049 14.718 1.2 19.775 2.588a4.97 4.97 0 0 1 3.373 2.336 3.163 3.163 0 0 1 .188 2.354l-2.772 17.6-.478 39.923a2.694 2.694 0 0 1-2.679 2.645z" transform="translate(-638.795 -297.915)" style="fill:#ec8658"/>
            <path data-name="Path 427" d="M706.479 381.225s14.583 1.179 19.626 2.562c4.028 1.107 2.987 3.712 2.987 3.712l-2.783 17.668-.488 40.04a1.872 1.872 0 0 1-1.87 1.845h-33.5a1.885 1.885 0 0 1-1.85-1.918c-.005-7-.049-31.285-.345-40.607-.1-3.13-1.364-13.68-1.739-16.855-.345-2.954 1.5-3.559 3.205-3.972 4.516-1.094 16.753-2.475 16.753-2.475m0-1.618a1.479 1.479 0 0 0-.182.01c-.5.057-12.39 1.405-16.952 2.509-1.358.33-4.96 1.2-4.431 5.733l.075.634c.428 3.612 1.562 13.207 1.654 16.084.306 9.671.34 35.481.343 40.557a3.507 3.507 0 0 0 3.468 3.535h33.5a3.5 3.5 0 0 0 3.486-3.44l.488-39.926 2.747-17.432a4.029 4.029 0 0 0-.256-2.888 5.725 5.725 0 0 0-3.883-2.757c-5.13-1.407-19.323-2.565-19.924-2.614h-.13z" transform="translate(-638.954 -298.074)" style="fill:#284356"/>
        </g>
        <path data-name="Path 428" d="m692.8 382.457 12.8 23.143 2.594-4.724 10.269-18.469a73.524 73.524 0 0 0-13.626-1.5c-3.463-.085-9.227 1.062-12.037 1.55z" transform="translate(-637.012 -297.756)" style="fill:#fff"/>
        <path data-name="Path 429" d="M712.238 366.668v20.09a14.543 14.543 0 0 1-9.7 3.233 6.273 6.273 0 0 1-5.52-3.876l.243-17.721z" transform="translate(-635.979 -301.241)" style="fill:#f4cfb3;stroke:#284356;stroke-linecap:round;stroke-linejoin:round;stroke-width:1.3px"/>
        <path data-name="Path 430" d="M720.009 359.607s0-13.854-14.779-13.624c-15.469.243-14.314 14.317-14.314 14.317l.459 9.929s1.364 17.1 14.444 17.434c1.962.05 11.545-1.735 13.08-17.283.901-6.007 1.11-10.773 1.11-10.773z" transform="translate(-637.477 -306.303)" style="fill:#f4cfb3;stroke:#284356;stroke-linecap:round;stroke-linejoin:round;stroke-width:1.3px"/>
        <path data-name="Path 431" d="M698.939 361.014a1.408 1.408 0 1 1-1.408-1.44 1.424 1.424 0 0 1 1.408 1.44z" transform="translate(-636.198 -302.977)" style="fill:#284356"/>
        <path data-name="Path 432" d="M709.275 361.107a1.408 1.408 0 1 1-1.408-1.44 1.425 1.425 0 0 1 1.408 1.44z" transform="translate(-633.669 -302.954)" style="fill:#284356"/>
        <path data-name="Path 433" d="M699.229 371.746s6.6 2.351 7.91-2.712" transform="translate(-635.438 -300.662)" style="fill:none;stroke:#284356;stroke-linecap:round;stroke-linejoin:round;stroke-width:1.3px"/>
        <path data-name="Path 434" d="M706.623 357.8s2.431-.828 3.917.438" transform="translate(-633.629 -303.476)" style="fill:none;stroke:#284356;stroke-linecap:round;stroke-linejoin:round;stroke-width:1.3px"/>
        <path data-name="Path 435" d="M698.829 357.814a3.569 3.569 0 0 0-3.63.459" transform="translate(-636.424 -303.482)" style="fill:none;stroke:#284356;stroke-linecap:round;stroke-linejoin:round;stroke-width:1.3px"/>
        <path data-name="Path 436" d="M714.051 360.525s1.307-2.616 3.311-1.77c2.039.864 1.461 5.234-.231 9.39s-4.081 3.849-4.081 3.849a29.109 29.109 0 0 0 .692-6.081c.058-1.384.309-5.388.309-5.388z" transform="translate(-632.056 -303.218)" style="fill:#f4cfb3;stroke:#284356;stroke-linecap:round;stroke-linejoin:round;stroke-width:1.3px"/>
        <path data-name="Path 437" d="M692.163 359.841c0-.951-1.234-2.847-3.55-1.385-1.872 1.184-1.464 5.234.232 9.39s3.773 3.694 3.773 3.694-.455-6.697-.455-11.699z" transform="translate(-638.338 -303.381)" style="fill:#f4cfb3;stroke:#284356;stroke-linecap:round;stroke-linejoin:round;stroke-width:1.3px"/>
        <path data-name="Path 438" d="M714.053 355c-6 5.619-16.935 4.233-16.935 4.233v-3.386l-1.923.076s-3.389-.076-3.389 5.387v8a40.932 40.932 0 0 1-2.655-13.545c-.459-10.967 8.332-14.233 12.238-14.663a46.1 46.1 0 0 1 7.736 0c.818.05-.113-2.079 0-2.079 3.351 0 6.409 3.382 7.044 3.579 5.406 1.682 8.775 5.721 6.7 14.433-1.811 7.58-3.272 12.122-3.272 12.122V359s-.012-9.179-5.544-4z" transform="translate(-637.909 -308.005)" style="fill:#284356"/>
        <path data-name="Path 439" d="m703.641 404.666 2.594-4.724-1.891-7.253 2.079-4.46-2.446-3.483-3.178 3.421 2.139 4.522-1.955 7.271z" transform="translate(-635.054 -296.817)" style="fill:#284356"/>
        <path data-name="Path 440" d="M696.549 378.439a.761.761 0 0 1 1.237-.163l6.938 7.676a1.684 1.684 0 0 1 .324 1.74l-2.981 7.783a.515.515 0 0 1-.94.111l-6.412-11.709a1.752 1.752 0 0 1-.026-1.794z" transform="translate(-636.606 -298.461)" style="fill:#fff;stroke:#284356;stroke-linecap:round;stroke-linejoin:round;stroke-width:1.3px"/>
        <path data-name="Path 441" d="M711.812 378.438a.727.727 0 0 0-1.2-.162l-7.028 7.765a1.728 1.728 0 0 0-.311 1.741l2.893 7.783a.5.5 0 0 0 .915.111l6.683-11.993a1.8 1.8 0 0 0 .024-1.795z" transform="translate(-634.476 -298.461)" style="fill:#fff;stroke:#284356;stroke-linecap:round;stroke-linejoin:round;stroke-width:1.3px"/>
        <g data-name="Group 208">
            <g data-name="Group 207">
                <path data-name="Path 442" d="m718.117 348.391 10.167 3.295a2.415 2.415 0 1 0 4.589 1.487l5.59 1.759a10.058 10.058 0 0 1 5.873 4.983l3.249 6.351a1.593 1.593 0 0 1-.695 2.146l-1.09.561a1.281 1.281 0 0 0-.559 1.724.816.816 0 0 1-.356 1.1l-.906.464a2.884 2.884 0 0 0-1.253 3.88l.2.387 22.005-11.261a3.317 3.317 0 0 0-4.466-1.443l-1.219.622a.811.811 0 0 1-1.094-.355 1.292 1.292 0 0 0-1.729-.556l-.57.291a1.224 1.224 0 0 1-1.647-.529l-3.353-6.557a10.088 10.088 0 0 1-.62-7.68l1.814-5.509a2.411 2.411 0 0 0 2.376-3.5 2.363 2.363 0 0 0-.886-.951l3.556-10.645a7.39 7.39 0 0 0-.472-5.637l-.2-.385a6.265 6.265 0 0 0-3.754-3.092 6.488 6.488 0 0 0-4.812.447l-4.057 2.075c-.617-1.215.2-2.568.942-3.716a2.273 2.273 0 0 0-2.944-3.259l-26.284 13.451a2.27 2.27 0 0 0 .926 4.291c1.417.072 3.045.179 3.844 1.267l-3.794 1.943a6.491 6.491 0 0 0-3.181 3.643 6.239 6.239 0 0 0 .311 4.849l.2.387a7.38 7.38 0 0 0 4.299 3.672zm36.229-20.828-2.921 9.085a.155.155 0 0 1-.294.016 15.669 15.669 0 0 0-.986-2.4l-4.8-9.4a.5.5 0 0 1 .218-.672l3.612-1.848a3.685 3.685 0 0 1 2.682-.248 3.322 3.322 0 0 1 2.009 1.658l.2.382a4.465 4.465 0 0 1 .279 3.427zM716.4 343.417l-.2-.386a3.331 3.331 0 0 1-.168-2.6 3.634 3.634 0 0 1 1.773-2.028l3.376-1.73a.493.493 0 0 1 .671.217l4.81 9.394a15.379 15.379 0 0 0 1.161 1.912.161.161 0 0 1-.169.256L719 345.65a4.458 4.458 0 0 1-2.6-2.233z" transform="translate(-632.078 -313.975)" style="fill:#ec8658;stroke:#284356;stroke-linecap:round;stroke-linejoin:round;stroke-width:1.3px"/>
                <path data-name="Path 443" d="m715.258 328.334 26.284-13.451a2.274 2.274 0 0 1 2.944 3.259 14.42 14.42 0 0 0-.407.646l-27.133 13.886c-.255-.022-.51-.035-.762-.05a2.27 2.27 0 0 1-.926-4.291z" transform="translate(-631.819 -313.975)" style="fill:#ec8658;stroke:#284356;stroke-linecap:round;stroke-linejoin:round;stroke-width:1.3px"/>
                <path data-name="Path 444" d="M743.5 317.971c-.588.99-1.044 2.079-.536 3.076l.056.113-23.494 12.022c-.636-.986-1.906-1.231-3.158-1.324z" transform="translate(-631.244 -313.158)" style="fill:#fff;stroke:#284356;stroke-linecap:round;stroke-linejoin:round;stroke-width:1.3px"/>
                <path data-name="Path 445" d="m753.458 354.845 1.219-.622a3.317 3.317 0 0 1 4.466 1.443l-22.005 11.261-.2-.387a2.884 2.884 0 0 1 1.253-3.88l.906-.464z" transform="translate(-626.288 -304.375)" style="fill:none;stroke:#284356;stroke-linecap:round;stroke-linejoin:round;stroke-width:1.3px"/>
                <path data-name="Path 446" d="m749.538 354.238.57-.291a1.292 1.292 0 0 1 1.729.556.809.809 0 0 0 .856.429l-13.923 7.125a.814.814 0 0 0 .154-.947 1.281 1.281 0 0 1 .559-1.724l1.09-.561a1.549 1.549 0 0 0 .5-.4l7.92-4.055a1.151 1.151 0 0 0 .545-.132z" transform="translate(-625.762 -304.388)" style="fill:#fff;stroke:#284356;stroke-linecap:round;stroke-linejoin:round;stroke-width:1.3px"/>
                <path data-name="Path 447" d="M727.208 339.144a8.036 8.036 0 1 0 3.493-10.815 8.036 8.036 0 0 0-3.493 10.815z" transform="translate(-628.808 -310.84)" style="fill:#fff;stroke:#284356;stroke-linecap:round;stroke-linejoin:round;stroke-width:1.3px"/>
                <path data-name="Path 448" d="m718.117 348.391 10.167 3.295a2.415 2.415 0 1 0 4.589 1.487l5.59 1.759a10.058 10.058 0 0 1 5.873 4.983l3.249 6.351a1.593 1.593 0 0 1-.695 2.146l-1.09.561a1.281 1.281 0 0 0-.559 1.724.816.816 0 0 1-.356 1.1l-.906.464a2.884 2.884 0 0 0-1.253 3.88l.2.387 22.005-11.261a3.317 3.317 0 0 0-4.466-1.443l-1.219.622a.811.811 0 0 1-1.094-.355 1.292 1.292 0 0 0-1.729-.556l-.57.291a1.224 1.224 0 0 1-1.647-.529l-3.353-6.557a10.088 10.088 0 0 1-.62-7.68l1.814-5.509a2.411 2.411 0 0 0 2.376-3.5 2.363 2.363 0 0 0-.886-.951l3.556-10.645a7.39 7.39 0 0 0-.472-5.637l-.2-.385a6.265 6.265 0 0 0-3.754-3.092 6.488 6.488 0 0 0-4.812.447l-4.057 2.075c-.617-1.215.2-2.568.942-3.716a2.273 2.273 0 0 0-2.944-3.259l-26.284 13.451a2.27 2.27 0 0 0 .926 4.291c1.417.072 3.045.179 3.844 1.267l-3.794 1.943a6.491 6.491 0 0 0-3.181 3.643 6.239 6.239 0 0 0 .311 4.849l.2.387a7.38 7.38 0 0 0 4.299 3.672zm36.229-20.828-2.921 9.085a.155.155 0 0 1-.294.016 15.669 15.669 0 0 0-.986-2.4l-4.8-9.4a.5.5 0 0 1 .218-.672l3.612-1.848a3.685 3.685 0 0 1 2.682-.248 3.322 3.322 0 0 1 2.009 1.658l.2.382a4.465 4.465 0 0 1 .279 3.427zM716.4 343.417l-.2-.386a3.331 3.331 0 0 1-.168-2.6 3.634 3.634 0 0 1 1.773-2.028l3.376-1.73a.493.493 0 0 1 .671.217l4.81 9.394a15.379 15.379 0 0 0 1.161 1.912.161.161 0 0 1-.169.256L719 345.65a4.458 4.458 0 0 1-2.6-2.233z" transform="translate(-632.078 -313.975)" style="fill:none;stroke:#284356;stroke-linecap:round;stroke-linejoin:round;stroke-width:1.3px"/>
            </g>
        </g>
        <path data-name="Path 449" d="m738.94 358.068-3.508-.921s.166-3.952 1.748-6.448c1.318-2.081 2.526-3.332 3.354-2.761a1.452 1.452 0 0 1 .535 1.156s-1.065 2.671-1.433 3.386a12.724 12.724 0 0 0 .563 2.867" transform="translate(-626.578 -305.858)" style="fill:#f4cfb3;stroke:#284356;stroke-linecap:round;stroke-linejoin:round;stroke-width:1.3px"/>
    </g>
</svg>
