<svg xmlns="http://www.w3.org/2000/svg" width="130.299" height="212.767" viewBox="0 0 130.299 212.767">
    <g data-name="Group 199">
        <path data-name="Line 26" transform="translate(.65 212.117)" style="stroke-linecap:round;stroke-linejoin:round;stroke-width:1.3px;stroke:#284356;fill:#257f89" d="M0 0h128.999"/>
        <g data-name="Group 197">
            <path data-name="Path 357" d="M443.6 352.264a48.525 48.525 0 0 1-3.665-3.8 25.057 25.057 0 0 1-3.919-7.657s1.414 1.209 2.022-4.984c.469-4.78 8.039-1 8.736 3.722 1.044 7.125 1.342 10.025 1.342 10.025z" transform="translate(-356.278 -295.555)" style="fill:#f4cfb3;stroke-linecap:round;stroke-linejoin:round;stroke-width:1.3px;stroke:#284356"/>
            <path data-name="Path 358" d="M400.495 352.264a48.74 48.74 0 0 0 3.665-3.8 25.114 25.114 0 0 0 3.917-7.657s-1.416 1.209-2.021-4.984c-.471-4.78-8.039-1-8.736 3.722-1.047 7.125-1.343 10.025-1.343 10.025z" transform="translate(-362.478 -295.555)" style="fill:#f4cfb3;stroke-linecap:round;stroke-linejoin:round;stroke-width:1.3px;stroke:#284356"/>
            <path data-name="Path 359" d="M435.177 415.906s9.977-24.4 12.021-36.13c2.138-12.261 2.357-33.789 2.357-33.789l-7.661 2.455s-3.141 24.706-3.571 27.165c-.627 3.607-2.163 12.5-3.481 17.312z" transform="translate(-356.461 -293.639)" style="stroke:#294356;fill:#fff;stroke-linecap:round;stroke-linejoin:round;stroke-width:1.3px"/>
            <path data-name="Path 360" d="M409.192 415.906s-9.974-24.4-12.018-36.13c-2.14-12.261-2.359-33.789-2.359-33.789l7.66 2.455s3.145 24.706 3.573 27.165c.627 3.607 2.163 12.5 3.479 17.312z" transform="translate(-362.658 -293.639)" style="stroke:#294356;fill:#fff;stroke-linecap:round;stroke-linejoin:round;stroke-width:1.3px"/>
            <path data-name="Path 361" d="m411.947 475.548.182 10.362-5.4.1-.039-2.365s-.9 2.379-3.064 2.419l-9.519.17s-.436-3.879 1.727-4.564 7.675-1.111 9.049-5.349l1.375-4.234z" transform="translate(-362.773 -274.115)" style="fill:#294356"/>
            <path data-name="Path 362" d="m430.543 475.548-.185 10.362 5.4.1.038-2.365s.9 2.379 3.067 2.419l9.519.17s.435-3.879-1.728-4.564-7.675-1.111-9.049-5.349l-1.378-4.234z" transform="translate(-357.155 -274.115)" style="fill:#294356"/>
            <path data-name="Path 363" d="m423.11 430.569 1.216-6.823-16.126 4.634s-2.724 21.543-3.388 32.111c-.344 5.414-1.952 23.711-1.952 23.711l8.394.43s5.786-21.849 7.4-27.286c2.694-9.057 4.224-17.328 4.224-17.328s4 15.312 4.887 20.972c.911 5.822 6.333 23.109 6.333 23.109l9.542.1-5.533-54.564z" transform="translate(-361.412 -281.599)" style="fill:#71a5c5;stroke-linecap:round;stroke-linejoin:round;stroke-width:1.3px;stroke:#284356"/>
            <g data-name="Group 195">
                <g data-name="Group 194">
                    <path data-name="Path 364" d="M427.278 442.109a70.36 70.36 0 0 1-20.475-3.168.773.773 0 0 1-.2-.1c-2.178-1.595-1.545-4.887-1.467-5.258a53.813 53.813 0 0 0 .894-17.358c-.148-2.006-.3-4.081-.336-6.39 0-.216.144-22.085 1.835-23.8a.934.934 0 0 1 .666-.291 1.085 1.085 0 0 1 .342.068A28.791 28.791 0 0 0 419.066 388c1.046.059 2.13.12 3.253.256a34.338 34.338 0 0 0 4.129.249 33.158 33.158 0 0 0 12.7-2.423.761.761 0 0 1 .318-.069.737.737 0 0 1 .353.089.747.747 0 0 1 .388.547c.08.515 1.925 12.678 1.365 18.369-.76 7.716-1.35 30.388-1.357 30.616a4.177 4.177 0 0 0 .049.507c.145 1.2.535 4.38-2.951 5.052a53.216 53.216 0 0 1-10.035.916z" transform="translate(-361.083 -287.483)" style="fill:#ec8658"/>
                    <g data-name="Group 193">
                        <path data-name="Path 365" d="M408.3 386.592a.157.157 0 0 1 .055.012c6.288 2.567 9.746 1.986 13.977 2.5a35.06 35.06 0 0 0 4.219.254 33.557 33.557 0 0 0 13.016-2.492s1.917 12.518 1.36 18.182c-.773 7.831-1.36 30.67-1.36 30.67-.027.889 1.057 4.193-2.3 4.84a52.2 52.2 0 0 1-9.89.9 68.892 68.892 0 0 1-20.231-3.126c-1.584-1.159-1.363-3.615-1.174-4.493 2.288-10.69.693-15.838.574-23.918-.039-2.677.387-23.33 1.751-23.329m0-1.5a1.68 1.68 0 0 0-1.2.514c-.513.519-1.211 1.229-1.728 12.122-.248 5.268-.343 10.835-.323 12.217.034 2.329.188 4.416.338 6.433a53.216 53.216 0 0 1-.88 17.146c-.4 1.888-.187 4.6 1.758 6.02a1.467 1.467 0 0 0 .4.208 69.793 69.793 0 0 0 20.72 3.208 53.859 53.859 0 0 0 10.176-.928c4.172-.8 3.7-4.625 3.552-5.88-.02-.163-.04-.3-.042-.4 0-.221.594-22.867 1.353-30.554.569-5.783-1.292-18.037-1.371-18.556a1.5 1.5 0 0 0-2.119-1.133 32.485 32.485 0 0 1-12.381 2.351 33.535 33.535 0 0 1-4.037-.244c-1.149-.139-2.243-.2-3.3-.261a27.828 27.828 0 0 1-10.287-2.136 1.805 1.805 0 0 0-.622-.123z" transform="translate(-361.184 -287.584)" style="fill:#284356"/>
                    </g>
                </g>
            </g>
            <path data-name="Path 366" d="m410.42 387.324 11.534 22.839 12.317-22.212c-6.048.963-12.637 1.245-12.637 1.245a79.194 79.194 0 0 1-11.214-1.872z" transform="translate(-360.242 -287.238)" style="fill:#fff"/>
            <path data-name="Path 367" d="M429.611 374.446 427.33 391.7a4.961 4.961 0 0 1-5.977 3.837c-3.551-.616-7.017-6.115-7.017-6.115l2.222-15.191z" transform="translate(-359.636 -289.266)" style="fill:#f2ceb3;stroke:#294356;stroke-linecap:round;stroke-linejoin:round;stroke-width:1.3px"/>
            <g data-name="Group 196">
                <path data-name="Path 368" d="M435.625 366.713s.538-11.986-12.262-12.358c-13.392-.393-12.941 11.831-12.941 11.831l.014 8.609s.521 14.85 11.825 15.648c1.694.119 10.057-1.057 11.986-14.449 1.013-5.164 1.378-9.281 1.378-9.281z" transform="translate(-360.242 -292.345)" style="fill:#f2ceb3;stroke:#294356;stroke-linecap:round;stroke-linejoin:round;stroke-width:1.3px"/>
                <path data-name="Path 369" d="M417.586 368.113a1.22 1.22 0 1 1-1.163-1.3 1.236 1.236 0 0 1 1.163 1.3z" transform="translate(-359.51 -290.414)" style="fill:#294356"/>
                <path data-name="Path 370" d="M427.217 368.632a1.219 1.219 0 1 1-1.158-1.3 1.231 1.231 0 0 1 1.158 1.3z" transform="translate(-358.018 -290.334)" style="fill:#294356"/>
                <path data-name="Path 371" d="M416.605 374.759a5.322 5.322 0 0 0 4.29 3.4c1.386.276 4.553-1.016 5.107-2.647" transform="translate(-359.284 -289.184)" style="fill:none;stroke:#294356;stroke-linecap:round;stroke-linejoin:round;stroke-width:1.3px"/>
                <path data-name="Path 372" d="M431.882 368.249s1.238-2.215 2.937-1.4c1.732.822 1.063 4.586-.564 8.114s-3.68 3.173-3.68 3.173a25.072 25.072 0 0 0 .836-5.232c.109-1.204.471-4.655.471-4.655z" transform="translate(-357.121 -290.437)" style="fill:#f2ceb3;stroke:#294356;stroke-linecap:round;stroke-linejoin:round;stroke-width:1.3px"/>
                <path data-name="Path 373" d="M411.195 366.689c.037-.822-.955-2.509-3.014-1.334-1.671.95-1.47 4.471-.165 8.133s3.121 3.344 3.121 3.344-.137-5.811.058-10.143z" transform="translate(-360.774 -290.703)" style="fill:#f2ceb3;stroke:#294356;stroke-linecap:round;stroke-linejoin:round;stroke-width:1.3px"/>
                <path data-name="Path 374" d="M430.563 361.99c-5.413 4.63-14.814 3.008-14.814 3.008l.129-2.933-1.669-.006s-2.927-.2-3.14 4.53l-.307 6.928a35.417 35.417 0 0 1-1.773-11.824c.023-9.51 7.757-11.993 11.153-12.217a40.1 40.1 0 0 1 6.7.3c.7.076-.021-1.8.081-1.795 2.9.126 5.413 3.173 5.956 3.367 4.611 1.663 7.37 5.291 5.231 12.747-1.858 6.489-3.3 10.362-3.3 10.362l.391-8.791s.35-7.944-4.638-3.676z" transform="translate(-360.463 -293.33)" style="fill:#71a5c5;stroke-linecap:round;stroke-linejoin:round;stroke-width:1.3px;stroke:#284356"/>
            </g>
            <path data-name="Path 375" d="m420.708 409.414 2.31-4.05-1.532-6.312 1.863-3.833-2.068-3.055-2.8 2.92 1.787 3.945-1.8 5.952z" transform="translate(-358.996 -286.489)" style="fill:#284356"/>
            <path data-name="Path 376" d="M414.523 386.136a.658.658 0 0 1 1.073-.121l5.9 6.75a1.45 1.45 0 0 1 .252 1.51l-2.692 6.7a.446.446 0 0 1-.815.084l-5.385-10.233a1.521 1.521 0 0 1 0-1.556z" transform="translate(-359.898 -287.476)" style="stroke:#294356;fill:#fff;stroke-linecap:round;stroke-linejoin:round;stroke-width:1.3px"/>
            <path data-name="Path 377" d="M428.339 386.359a.632.632 0 0 0-1.039-.159l-6.2 6.625a1.493 1.493 0 0 0-.3 1.5l2.393 6.784a.428.428 0 0 0 .789.107l5.965-10.284a1.565 1.565 0 0 0 .045-1.557z" transform="translate(-358.647 -287.444)" style="stroke:#294356;fill:#fff;stroke-linecap:round;stroke-linejoin:round;stroke-width:1.3px"/>
        </g>
        <g data-name="Group 198">
            <path data-name="Path 378" d="M425.42 301.22a26.132 26.132 0 1 0 26.135 26.137 26.165 26.165 0 0 0-26.135-26.137z" transform="translate(-361.966 -300.57)" style="fill:#ec8658;stroke-linecap:round;stroke-linejoin:round;stroke-width:1.3px;stroke:#284356"/>
            <path data-name="Path 379" d="M424.807 324.293v-8.586c3.215 0 4.6 1.679 4.6 3.794h3.481c0-3.88-2.861-7.273-8.083-7.273v-2.6h-3.479v2.6c-10.307.054-10.276 15.641 0 15.584v8.582c-2.859 0-4.305-1.736-4.305-3.792h-3.484c0 3.816 2.894 7.275 7.789 7.275v2.6h3.479v-2.6c9.995-.001 11.679-15.677.002-15.584zm-3.479-8.583v8.622c-5.581.112-5.828-8.563-.001-8.621zm3.479 20.683v-8.616c7.022-.101 5.545 8.616 0 8.616z" transform="translate(-359.759 -299.268)" style="fill:#f5f5f5"/>
        </g>
    </g>
</svg>
