<svg xmlns="http://www.w3.org/2000/svg" width="271.871" height="824.003" viewBox="0 0 271.871 824.003">
    <path data-name="Exclusion 1" d="M-17978-5989h-271.871v-824H-17978zm-29.748-704.151c-3.721 0-6.578.8-8.49 2.375a7.091 7.091 0 0 0-2.562 5.677 7.09 7.09 0 0 0 4.1 6.549c-2.8 2.293-4.1 4.468-4.1 6.847a4.332 4.332 0 0 0 2.8 4.1c-2.482 1.12-3.85 2.877-3.85 4.951a4.521 4.521 0 0 0 2.164 3.945c1.8 1.2 4.725 1.808 8.688 1.808 9.508 0 15.652-3.768 15.652-9.6 0-5.15-3.666-7.653-11.205-7.653h-5.545c-1.951 0-2.9-.572-2.9-1.75a4.292 4.292 0 0 1 .348-1.9 17.368 17.368 0 0 0 4.9.6c6.92 0 11.049-2.952 11.049-7.9a7.6 7.6 0 0 0-.8-3.554h4.7v-4.15l-.8-.5-5.6 2.551c-1.891-1.565-4.848-2.395-8.549-2.395zm-70.4 0c-8.553 0-14.3 5.244-14.3 13.049a12.585 12.585 0 0 0 3.926 9.715 13.429 13.429 0 0 0 9.025 3.188c5.006 0 8.59-1.968 10.652-5.849l-1.951-1.9a7.044 7.044 0 0 1-5.1 2.35 5.822 5.822 0 0 1-4.775-2.219 10.337 10.337 0 0 1-1.777-6.382c0-3.076.646-5.571 1.867-7.214a4.578 4.578 0 0 1 3.586-2.038h.2l.1 2.1a7.127 7.127 0 0 0 1.434 4.5 3.683 3.683 0 0 0 2.861 1.2 3.625 3.625 0 0 0 3.8-2.9 7.536 7.536 0 0 0-2.77-5.336 10.387 10.387 0 0 0-6.78-2.263zm43.2 5.35c1.619 0 2.25 1.023 2.25 3.65v5.652c0 2.13 0 5.047-.049 7.447l-2.15.5v2.552h13.852v-2.551l-2.1-.449c-.047-2.4-.047-5.347-.047-7.5v-6.3c0-5.15-2.893-8.35-7.551-8.35a8.264 8.264 0 0 0-3.838.8 12.069 12.069 0 0 0-3.762 3.2l-.25-3.449-.9-.55-11.053 3.449v2.052l2.7.449.02.4c.08 1.7.127 2.634.127 5.2v3.1c0 1.99 0 5-.049 7.4l-2.3.55v2.549h13.8v-2.551l-1.9-.4c-.047-2.451-.047-5.4-.047-7.548v-8a6.22 6.22 0 0 1 3.244-1.301zm-20-5.35-11.605 3.449v2.052l2.7.449c.1 1.994.15 3.516.15 6.3v2.4c0 1.99 0 5-.051 7.447l-2.246.5v2.551h13.943v-2.551l-2.1-.449c-.053-2.4-.053-5.347-.053-7.5v-6.65l.154-7.452zm-42.352 0-11.6 3.449v2.052l2.7.449c.1 1.9.148 3.466.148 6.3v2.4c0 1.99 0 5-.047 7.447l-2.254.5v2.554h13.951v-2.551l-2.1-.449c-.055-2.4-.055-5.347-.055-7.5v-6.65l.15-7.452zm-24.9 0-11.047 3.449v2.052l2.7.449.016.319c.09 1.724.135 2.589.135 5.232v3.151c0 1.99 0 5-.051 7.4l-2.4.55v2.551h15.9v-2.551l-3.9-.848c-.049-2.35-.049-5.208-.049-7.1v-3.151a13.053 13.053 0 0 1 2.947-5.9l.252.348c1.318 1.926 2.574 2.748 4.2 2.748 2.131 0 3.66-1.708 3.8-4.25a5.161 5.161 0 0 0-1.537-3.366 4.562 4.562 0 0 0-3.115-1.082c-2.3 0-5.223 1.963-6.549 6.349l-.4-5.8zm-41.4-7.452v2.95l3.449.353a976.2 976.2 0 0 1 .051 12.2v1.6c0 4.031 0 8.2-.049 12.2l-3.451.348v2.952h17.9v-2.949l-4.449-.449c-.051-3.2-.051-6.36-.051-8.9h.9c5.18 0 9.055-1.033 11.516-3.07a9.094 9.094 0 0 0 3.188-7.381c0-6.629-5.02-9.852-15.348-9.852h-13.654zm104.551-4.1a4.357 4.357 0 0 0-4.6 4.3 4.357 4.357 0 0 0 4.6 4.3 4.361 4.361 0 0 0 4.6-4.3 4.361 4.361 0 0 0-4.602-4.297zm-42.348 0a4.362 4.362 0 0 0-4.6 4.3 4.362 4.362 0 0 0 4.6 4.3 4.36 4.36 0 0 0 4.6-4.3 4.36 4.36 0 0 0-4.603-4.297zm93.447 44.551a10.173 10.173 0 0 1-5.172-.981 3.356 3.356 0 0 1-1.576-3.118 5.048 5.048 0 0 1 .4-2.249 18.871 18.871 0 0 0 5.455.6h5c2.324 0 3.15 1.264 3.15 2.446a2.7 2.7 0 0 1-1.8 2.364 12.962 12.962 0 0 1-5.458.94zm.2-19.553c-1.871 0-2.705-1.695-2.705-5.5 0-3.617.91-5.45 2.705-5.45 1.83 0 2.8 1.885 2.8 5.45a9.661 9.661 0 0 1-.65 4.061 2.243 2.243 0 0 1-2.148 1.444zm-141.75-3.6h-.7v-1.8c0-4.107 0-8.354.1-12.4h.4a5.794 5.794 0 0 1 4.412 1.664 7.1 7.1 0 0 1 1.639 5.037 8.972 8.972 0 0 1-1.518 5.439 5.213 5.213 0 0 1-4.333 2.065z" transform="translate(18249.871 6813.002)" style="fill:#4663bf"/>
</svg>
