<svg xmlns="http://www.w3.org/2000/svg" width="171.562" height="199.466" viewBox="0 0 171.562 199.466">
    <g data-name="Group 204">
        <path data-name="Path 380" d="M403.163 93.3s-8.325-1.82-13.532 11.866c0 0-3.9 10.486-5.987 27.954-1.853 15.577-2.079 22.681-2.079 22.681h10.88a110.276 110.276 0 0 1 5.255-29.3c3.973-11.7 5.724-12.516 5.724-12.516z" transform="translate(-356.268 -34.001)" style="stroke-linecap:round;stroke-linejoin:round;stroke-width:1.3px;stroke:#284356;fill:#ec8658"/>
        <path data-name="Line 27" transform="translate(.651 198.817)" style="fill:#257f89;stroke-linecap:round;stroke-linejoin:round;stroke-width:1.3px;stroke:#284356" d="M0 0h127.368"/>
        <path data-name="Path 381" d="M430.826 93.285s9.776-1.213 12.649 13.144c.873 4.347 2.059 8.081 7.744 15.076 5.3 6.519 21.459 9.1 21.459 9.1l-1.358 8.986s-22.545-1.108-30.83-9.362c-8.758-8.722-9.92-16.264-9.92-16.264z" transform="translate(-343.076 -33.989)" style="stroke-linecap:round;stroke-linejoin:round;stroke-width:1.3px;stroke:#284356;fill:#ec8658"/>
        <path data-name="Path 382" d="M420.526 193.567v13.484h7.024v-3.077s1.222 3.077 4.049 3.077h12.38s.48-5.058-2.352-5.9-10.008-1.264-11.9-6.742l-1.887-5.478z" transform="translate(-345.779 -8.234)" style="fill:#284356"/>
        <path data-name="Path 383" d="M413.254 193.567v13.484h-7.023v-3.077s-1.225 3.077-4.049 3.077H389.8s-.48-5.058 2.353-5.9 10.009-1.264 11.893-6.742l1.894-5.478z" transform="translate(-354.059 -8.234)" style="fill:#284356"/>
        <path data-name="Path 384" d="m419.13 145 .937-8.97L399 129.764l.807 83.335 11.753 1.057 6.977-56.792 6.722 56.792h11.143l2.1-71.789z" transform="translate(-351.573 -24.162)" style="fill:#385b7a;stroke-linecap:round;stroke-linejoin:round;stroke-width:1.3px;stroke:#284356"/>
        <path data-name="Path 385" d="M440.656 93.35c-5.684-1.559-22.119-2.887-22.119-2.887s-13.79 1.556-18.878 2.79c-1.924.466-4 1.149-3.613 4.478.424 3.577 1.847 15.464 1.958 18.994.335 10.505.385 37.871.391 45.767a2.121 2.121 0 0 0 2.083 2.159h37.749a2.108 2.108 0 0 0 2.108-2.08l.553-45.124 3.132-19.911s1.18-2.936-3.364-4.186z" transform="translate(-352.383 -34.742)" style="stroke-linecap:round;stroke-linejoin:round;stroke-width:1.3px;stroke:#284356;fill:#ec8658"/>
        <path data-name="Path 386" d="m433.228 162.5.555-45.124 3.134-19.913s1.174-2.936-3.366-4.183a98.118 98.118 0 0 0-12.037-1.9c2.582 3.217 6.238 10.107 5.314 22.813-1.335 18.381-4.059 40.4-5.294 49.991l.588.4h9a2.1 2.1 0 0 0 2.106-2.084z" transform="translate(-345.514 -34.495)" style="opacity:.32;fill:#284356"/>
        <path data-name="Path 387" d="m405.162 92.475 11.823 40.567 12.845-40.977c-8.332-1.722-13.424-.715-13.424-.715a58.869 58.869 0 0 0-11.244 1.125z" transform="translate(-349.916 -34.582)" style="fill:#fff"/>
        <path data-name="Path 388" d="M418.435 134.565 407.3 122.821l2.635-4.746-9.612-7.848 3.177-18.765 4.29-.081z" transform="translate(-351.219 -34.495)" style="stroke-linecap:round;stroke-linejoin:round;stroke-width:1.3px;stroke:#284356;fill:#ec8658"/>
        <path data-name="Path 389" d="m414.375 134.565 11.138-11.743-2.635-4.746 9.613-7.848-3.184-18.764-4.29-.081z" transform="translate(-347.435 -34.495)" style="stroke-linecap:round;stroke-linejoin:round;stroke-width:1.3px;stroke:#284356;fill:#ec8658"/>
        <path data-name="Path 390" d="m415.379 136.939 2.923-5.586-2.131-27.253 2.341-5.272-2.757-4.121-3.582 4.044 2.413 5.348-2.2 27.279z" transform="translate(-348.028 -33.6)" style="fill:#284356"/>
        <path data-name="Path 391" d="M408.162 75.51v21.551a21.111 21.111 0 0 0 11.6 3.466c4.456-.175 4.954-2.973 4.954-2.973l-.174-20.154z" transform="translate(-349.108 -38.768)" style="fill:#f4cfb3;stroke-linecap:round;stroke-linejoin:round;stroke-width:1.3px;stroke:#284356"/>
        <path data-name="Path 392" d="M407.524 87.744a.856.856 0 0 1 1.392-.184l7.821 8.65a1.9 1.9 0 0 1 .364 1.963l-3.357 8.773a.582.582 0 0 1-1.06.124l-7.228-13.2a1.975 1.975 0 0 1-.03-2.021z" transform="translate(-349.915 -35.599)" style="fill:#fff;stroke-linecap:round;stroke-linejoin:round;stroke-width:1.3px;stroke:#284356"/>
        <path data-name="Path 393" d="M424.536 87.743a.819.819 0 0 0-1.353-.184l-7.922 8.753a1.946 1.946 0 0 0-.35 1.961l3.261 8.774a.559.559 0 0 0 1.029.123l7.533-13.516a2.022 2.022 0 0 0 .028-2.023z" transform="translate(-347.325 -35.599)" style="fill:#fff;stroke-linecap:round;stroke-linejoin:round;stroke-width:1.3px;stroke:#284356"/>
        <path data-name="Path 394" d="M463.1 131.992s7.393 1.128 11.264.355c2.882-.575 6.866-2.956 7.285-3.825.75-1.547-1.3-2.412-1.994-2.644s-4.56 1.116-6.921.694c-1.691-.3-2.794-.838-1.9-.712s4.136.256 4.136.256a1.623 1.623 0 0 0 1.023-1c.3-1.1-1.48-1.908-4.187-2.532-3.243-.744-7.865.9-7.865.9z" transform="translate(-334.317 -26.147)" style="fill:#f4cfb3;stroke-linecap:round;stroke-linejoin:round;stroke-width:1.3px;stroke:#284356"/>
        <path data-name="Path 395" d="M403.289 70.881c1.173.079 3.243 2.62 4.7 4.612-.7-6.7-1.526-15.064-1.526-15.064s12.678-5.412 17.183-5.37c4.245.041 16.108 5.37 16.108 5.37l.069 15.425s.263 21.954-13.347 21.954c-3.721 0-12.966-3.211-17.568-14.27a3.839 3.839 0 0 1-4.067-2.2c-3.621-6.326-3.919-10.614-1.552-10.457z" transform="translate(-350.83 -44.273)" style="fill:#f4cfb3;stroke-linecap:round;stroke-linejoin:round;stroke-width:1.3px;stroke:#284356"/>
        <path data-name="Path 396" d="M447.373 53.161s1.416 13.839-9.279 16.121c-7.831 1.669-15.333-4.063-19.764-6.44-5.293-2.84-8.038-1.215-8.025 3.1.01 4.155-.036 10.673 0 14.011.005.69-.825 1.1-1.249.56-1.668-2.149-4.888-6.331-5.624-7.634-1.67-2.952-5.265-19.515 5.776-24.649 8.739-4.065 16.539.486 20.027 1.284 8.99 2.055 12.069-.772 12.069-.772s.514 4.751-3.466 6.034c-.52.167 5.902 2.181 9.535-1.615z" transform="translate(-350.897 -46.561)" style="fill:#284356"/>
        <path data-name="Path 397" d="M426.614 68.782a1.61 1.61 0 1 0 1.612-1.611 1.612 1.612 0 0 0-1.612 1.611z" transform="translate(-344.14 -41.013)" style="fill:#284356"/>
        <path data-name="Path 398" d="M415.019 68.884a1.611 1.611 0 1 0 1.609-1.611 1.612 1.612 0 0 0-1.609 1.611z" transform="translate(-347.262 -40.985)" style="fill:#284356"/>
        <path data-name="Path 399" d="M427.419 80.78a5.863 5.863 0 0 1-3.872.774c-1.485-.156-4.9-1.42-4.97-3.808" transform="translate(-346.304 -38.165)" style="fill:none;stroke-linecap:round;stroke-linejoin:round;stroke-width:1.3px;stroke:#284356"/>
        <g data-name="Group 200">
            <path data-name="Path 400" d="M509.693 108.054A31.584 31.584 0 1 1 478.11 76.47a31.583 31.583 0 0 1 31.583 31.584z" transform="translate(-338.78 -38.509)" style="stroke-linecap:round;stroke-linejoin:round;stroke-width:1.3px;stroke:#284356;fill:#ec8658"/>
            <path data-name="Path 401" d="M503.713 107.008a26.65 26.65 0 1 1-26.65-26.65 26.649 26.649 0 0 1 26.65 26.65z" transform="translate(-337.733 -37.462)" style="fill:#f5f5f5"/>
            <path data-name="Path 402" d="M475.387 105.257a1.134 1.134 0 0 1-1.6.016l-15.651-13.966a1.129 1.129 0 0 1-.165-1.587 1.131 1.131 0 0 1 1.6-.017l15.651 13.965a1.133 1.133 0 0 1 .169 1.588z" transform="translate(-335.767 -35.033)" style="fill:#71a5c5"/>
            <path data-name="Path 403" d="m472.874 105.413 8.567-9.359 2.89-3.238a1.366 1.366 0 0 0-.159-1.861 1.468 1.468 0 0 0-1.946-.014v-.006l-2.891 3.238-8.563 9.36v.006a1.529 1.529 0 0 0 .128 2 1.486 1.486 0 0 0 1.974-.126z" transform="translate(-332.336 -34.71)" style="fill:#71a5c5"/>
            <path data-name="Path 404" d="M475.758 102.22a3.589 3.589 0 1 1-3.587-3.589 3.589 3.589 0 0 1 3.587 3.589z" transform="translate(-332.842 -32.543)" style="stroke-linecap:round;stroke-linejoin:round;stroke-width:1.3px;stroke:#284356;fill:#ec8658"/>
            <path data-name="Path 405" d="M455.148 101.944a1.55 1.55 0 1 1-1.55-1.552 1.552 1.552 0 0 1 1.55 1.552z" transform="translate(-337.293 -32.069)" style="fill:#71a5c5"/>
            <path data-name="Path 406" d="M490.993 101.944a1.55 1.55 0 1 1-1.548-1.552 1.549 1.549 0 0 1 1.548 1.552z" transform="translate(-327.643 -32.069)" style="fill:#71a5c5"/>
            <path data-name="Path 407" d="M473.108 83.168a1.551 1.551 0 1 1-1.55-1.55 1.552 1.552 0 0 1 1.55 1.55z" transform="translate(-332.458 -37.123)" style="fill:#71a5c5"/>
            <path data-name="Path 408" d="M473.108 120.274a1.551 1.551 0 1 1-1.55-1.551 1.551 1.551 0 0 1 1.55 1.551z" transform="translate(-332.458 -27.134)" style="fill:#71a5c5"/>
        </g>
        <path data-name="Path 409" d="M390.352 141.615s3.361 5.45 3.215 7.247c-.414 5.074-7.646 4.767-7.646 4.767v-5.22l2.169-6.382z" transform="translate(-355.096 -20.971)" style="fill:#f4cfb3;stroke-linecap:round;stroke-linejoin:round;stroke-width:1.3px;stroke:#284356"/>
        <g data-name="Group 203">
            <g data-name="Group 202">
                <g data-name="Group 201">
                    <path data-name="Path 410" d="M398.557 155.014h-1.79v-3.4a2.593 2.593 0 0 0-2.678-2.5h-11.868a2.6 2.6 0 0 0-2.677 2.5v3.309h-1.786v-3.309a4.327 4.327 0 0 1 4.463-4.16h11.868a4.329 4.329 0 0 1 4.468 4.16z" transform="translate(-357.293 -19.4)" style="fill:#ec8658"/>
                </g>
            </g>
            <path data-name="Path 411" d="M409.256 176.566a2.514 2.514 0 0 1-2.6 2.424h-33.1a2.515 2.515 0 0 1-2.6-2.424V154.8a1.256 1.256 0 0 1 1.3-1.21h35.7a1.255 1.255 0 0 1 1.3 1.21z" transform="translate(-359.121 -17.748)" style="stroke-linecap:round;stroke-linejoin:round;stroke-width:1.3px;stroke:#284356;fill:#ec8658"/>
            <path data-name="Path 412" d="M409.211 162.05a5.027 5.027 0 0 1-5.195 4.839H376.11a5.027 5.027 0 0 1-5.195-4.839v-7.25a1.259 1.259 0 0 1 1.3-1.21h35.7a1.259 1.259 0 0 1 1.3 1.21z" transform="translate(-359.135 -17.748)" style="stroke-linecap:round;stroke-linejoin:round;stroke-width:1.3px;stroke:#284356;fill:#ec8658"/>
            <path data-name="Path 413" d="M389.872 166.3a3.161 3.161 0 0 1-6.307 0v-4.676h6.307z" transform="translate(-355.729 -15.584)" style="stroke:#294356;fill:#fff;stroke-linecap:round;stroke-linejoin:round;stroke-width:1.3px"/>
        </g>
        <path data-name="Path 414" d="m391.7 141.615-9.7.628s-1.962 6.015-.637 10.284c.989 3.184 9.416 4.116 9.618 1.409.037-.5.388-3.52.465-4.752" transform="translate(-356.445 -20.971)" style="fill:#f4cfb3;stroke-linecap:round;stroke-linejoin:round;stroke-width:1.3px;stroke:#284356"/>
    </g>
</svg>
