<svg xmlns="http://www.w3.org/2000/svg" width="144.389" height="203.212" viewBox="0 0 144.389 203.212">
    <g data-name="Group 192">
        <path data-name="Line 25" transform="translate(.94 202.272)" style="stroke:#284356;stroke-linecap:round;stroke-linejoin:round;fill:#257f89;stroke-width:1.879px" d="M0 0h122.113"/>
        <g data-name="Group 186">
            <path data-name="Path 330" d="M741.543 666.865c7.286 2.367 8.1-8.263 5.519-13.935-7.956 2.478-12.183 11.77-5.519 13.935z" transform="translate(-616.618 -586.568)" style="stroke-width:1.3px;fill:#ec8658;stroke:#284356;stroke-linecap:round;stroke-linejoin:round"/>
            <path data-name="Path 331" d="M735.569 683.427c3.064.687 1.942 3.654 5.075 4.292a11.759 11.759 0 0 0 5.68 0c5.063-1.142-.124-6.794 2.687-10.169z" transform="translate(-617.436 -579.029)" style="stroke-width:1.3px;fill:#ec8658;stroke:#284356;stroke-linecap:round;stroke-linejoin:round"/>
            <path data-name="Path 332" d="M713.09 672.585a22.37 22.37 0 0 1 9.926-14.059c11.716-7.11 27.681-3.583 32.111 3.182 3.5 5.342 2.718 4.149 10.792 6.466 3.574 1.028 2.58 14.976-.086 14.976-4.275.289-9.273 6.288-13.171 8.923-.324 3.225 2.258 7.082-1.823 8a11.749 11.749 0 0 1-5.678 0c-2.172-.443-2.3-2-3.194-3.144a22.329 22.329 0 0 1-11.588-.507c-1.394 1.131-1.174 3.139-3.687 3.651a11.737 11.737 0 0 1-5.675 0c-4.761-1.074-.466-6.129-2.266-9.537a17.673 17.673 0 0 1-6.071-11.88 11.605 11.605 0 0 1-2.147-4.129c-.362-1.674 1.239-1.969 2.557-1.942z" transform="translate(-625.118 -586.05)" style="stroke-width:1.3px;fill:#ec8658;stroke:#284356;stroke-linecap:round;stroke-linejoin:round"/>
            <path data-name="Path 333" d="M739.542 666.833c7.384 2.04 7.725-8.615 4.894-14.166-7.836 2.833-11.647 12.299-4.894 14.166z" transform="translate(-617.288 -586.649)" style="stroke-width:1.3px;fill:#ec8658;stroke:#284356;stroke-linecap:round;stroke-linejoin:round"/>
            <path data-name="Path 334" d="M745.1 666.435a1.788 1.788 0 1 0 1.786-1.852 1.821 1.821 0 0 0-1.786 1.852z" transform="translate(-614.516 -583)" style="fill:#284356"/>
            <path data-name="Path 335" d="M750.542 672.575c0 4.043 1.356 7.32 3.023 7.32s3.025-3.277 3.025-7.32-1.353-7.324-3.025-7.324-3.023 3.277-3.023 7.324z" transform="translate(-612.85 -582.795)" style="stroke-width:1.3px;fill:#ec8658;stroke:#284356;stroke-linecap:round;stroke-linejoin:round"/>
            <path data-name="Path 336" d="M751.351 671.188c0 1.2.435 2.18.982 2.18s.984-.977.984-2.18-.439-2.183-.984-2.183-.982.977-.982 2.183z" transform="translate(-612.603 -581.646)" style="fill:#284356"/>
            <path data-name="Path 337" d="M753.63 670.865c0 .944.348 1.714.775 1.714s.773-.769.773-1.714-.349-1.716-.773-1.716-.775.771-.775 1.716z" transform="translate(-611.905 -581.602)" style="fill:#284356"/>
        </g>
        <path data-name="Path 338" d="M726.165 642.658s6.147-.62 9.034-3.224c2.157-1.937 11.128-5.294 9.291-7.9-1.246-1.76-4.523-5.992-9.872-4.389-4.069 1.22-12.872 7.72-12.872 7.72z" transform="translate(-621.669 -594.573)" style="stroke-width:1.312px;fill:#f4cfb3;stroke:#284356;stroke-linecap:round;stroke-linejoin:round"/>
        <path data-name="Path 339" d="M679.77 662.817c1.115 2.836 24.143 14.5 40.471 8.293 16.485-6.265 19.593-28.41 19.593-28.41l-4.9-10.45S724.159 651.19 716 657.068c-5.653 4.07-18.834-10.651-26.057-8.727-13.229 3.531-12.193 9.336-10.173 14.476z" transform="translate(-634.891 -592.901)" style="fill:#d1d2d3;stroke-width:1.312px;stroke:#284356;stroke-linecap:round;stroke-linejoin:round"/>
        <g data-name="Group 187">
            <path data-name="Path 340" d="M710.972 636.574c1.7-.672 2.175-1.246 1.592-3.209-.38-1.28-1.944-4.928-1.944-4.928l-.415-9.511v-.217c-.009-1.763-.7-12.644-16.281-12.093-17.738.628-16.1 16.751-16.1 16.751l-.046 11.821a18.537 18.537 0 0 0 4.176 7.116l-.365 14.115 13.5 7.594-1.033-14.341a38.281 38.281 0 0 0 10.369.486 6.926 6.926 0 0 0 2.235-.505c3.893-1.298 4.611-6.206 4.312-13.079z" transform="translate(-635.132 -600.757)" style="stroke-width:1.312px;fill:#f4cfb3;stroke:#284356;stroke-linecap:round;stroke-linejoin:round"/>
            <path data-name="Path 341" d="M701.386 622.923a1.616 1.616 0 1 1-1.648-1.62 1.635 1.635 0 0 1 1.648 1.62z" transform="translate(-628.892 -596.253)" style="fill:#284356"/>
            <path data-name="Path 342" d="M703.194 635.1c-1.864.128-4.721-1.1-5.229-3.322" transform="translate(-628.951 -593.044)" style="stroke-width:.89px;fill:none;stroke:#284356;stroke-linecap:round;stroke-linejoin:round"/>
            <path data-name="Path 343" d="M699.15 602.686a53.857 53.857 0 0 0-7.118.141c-10.452.559-19.049 6.527-18.658 19.115.409 13.215 9.615 22.88 9.615 22.88s1.6-6.583 2.7-10.136c-1.692-3.811-1.3-6.714 1.01-7.631 1.7-.673 3.35.368 4.85 2.811 1.046 1.432 1.75 3.3 1.916 3.3 2.221.1 1.682-5.03 1.66-6.135-.287-14.525 8.01-11.252 8.01-11.252l-3.014 6.649a25.82 25.82 0 0 0 13.506-5.3c6.481-5.364.894-13.428-14.477-14.442z" transform="translate(-636.485 -601.976)" style="stroke-width:1.312px;fill:#ec8658;stroke:#284356;stroke-linecap:round;stroke-linejoin:round"/>
        </g>
        <path data-name="Path 344" d="M687.908 747.577V761.3h7.148v-3.128s1.249 3.128 4.124 3.128h12.608s.485-5.149-2.4-6-10.19-1.289-12.111-6.869l-1.923-5.576z" transform="translate(-632.031 -559.031)" style="stroke-width:.89px;fill:#284356;stroke:#284356;stroke-linecap:round;stroke-linejoin:round"/>
        <path data-name="Path 345" d="m678.733 689.655 26.022-8.272-3.319 88.778-11.308.744-4.615-33.825z" transform="translate(-634.84 -577.855)" style="fill:#4e7d93;stroke-width:1.312px;stroke:#284356;stroke-linecap:round;stroke-linejoin:round"/>
        <path data-name="Path 346" d="M676.86 747.577V761.3h7.152v-3.128s1.246 3.128 4.121 3.128h12.606s.487-5.149-2.4-6-10.19-1.289-12.111-6.869l-1.924-5.576z" transform="translate(-635.414 -559.031)" style="fill:#3e5b6d;stroke-width:1.335px;stroke:#284356;stroke-linecap:round;stroke-linejoin:round"/>
        <path data-name="Path 347" d="m675.82 685.937 23.055-5.687-8.47 90.169H676.4l-.575-41.983z" transform="translate(-635.732 -578.202)" style="fill:#71a5c5;stroke-width:1.312px;stroke:#284356;stroke-linecap:round;stroke-linejoin:round"/>
        <g data-name="Group 189">
            <g data-name="Group 188">
                <path data-name="Path 348" d="M676.235 711.837a2.918 2.918 0 0 1-2.027-.98 3.114 3.114 0 0 1-.775-2.241c.248-4.478.336-14.922.419-25.022.067-8.014.129-15.583.268-19.994.482-15.59 9.208-20.979 9.579-21.2a.882.882 0 0 1 .44-.122.856.856 0 0 1 .235.034 80.271 80.271 0 0 1 17.395 7.52c11.561 7.03 10.745 23.743 10.7 24.451L708 708.644a2.994 2.994 0 0 1-2.987 2.744h-.172l-28.563.453z" transform="translate(-636.465 -589.83)" style="fill:#fff"/>
                <path data-name="Path 349" d="M684.34 643.336a80.352 80.352 0 0 1 17.185 7.427c11.255 6.845 10.294 23.671 10.294 23.671l-4.462 34.3a2.145 2.145 0 0 1-2.14 2h-.122l-28.613.453a2.154 2.154 0 0 1-1.993-2.316c.445-8.023.372-35.012.687-45.04.474-15.3 9.163-20.491 9.163-20.491m0-1.715a1.709 1.709 0 0 0-.879.244c-.388.23-9.5 5.856-10 21.908-.14 4.423-.2 12-.268 20.014-.084 10.091-.17 20.524-.418 24.984a3.982 3.982 0 0 0 .99 2.859 3.773 3.773 0 0 0 2.622 1.263h.111l28.568-.451h.148a3.872 3.872 0 0 0 3.846-3.536l4.456-34.256c.006-.04.009-.081.012-.123.042-.729.88-17.938-11.115-25.234a81.277 81.277 0 0 0-17.607-7.611 1.7 1.7 0 0 0-.469-.067z" transform="translate(-636.666 -590.031)" style="fill:#284356"/>
            </g>
        </g>
        <path data-name="Path 350" d="M680.324 641.218a.871.871 0 0 1 1.378-.38l14.293 4.781a4.943 4.943 0 0 1 2.346 2.8l1.561 7.018a.591.591 0 0 1-1.049.277l-19.758-8.027a2.017 2.017 0 0 1-.312-2.035z" transform="translate(-634.87 -590.333)" style="stroke-width:1.312px;fill:#fff;stroke:#284356;stroke-linecap:round;stroke-linejoin:round"/>
        <g data-name="Group 190">
            <path data-name="Path 351" d="M714.316 687.789s3.445 4.4 6.641 5.753c2.38 1.006 12.007.311 12.069-3.121.023-1.381-6.613 1.716-7.329-.934-.589-2.183 3.364-.272 4.539-1.558 3.125-3.426-13.2-7.8-13.2-7.8z" transform="translate(-623.944 -578.241)" style="fill:#f4cfb3;stroke-width:1.3px;stroke:#284356;stroke-linecap:round;stroke-linejoin:round"/>
            <path data-name="Path 352" d="M677.957 652.772c-1.587 2.206-4.559 9.093 1.959 16.981a69.148 69.148 0 0 0 20.606 19.663 59.782 59.782 0 0 0 26.4 8.8l4.427-10.155a106.589 106.589 0 0 1-37.391-28.761c-7.891-9.589-13.119-10.531-16.001-6.528z" transform="translate(-635.712 -587.299)" style="fill:#fff;stroke-width:1.3px;stroke:#284356;stroke-linecap:round;stroke-linejoin:round"/>
        </g>
        <g data-name="Group 191">
            <path data-name="Path 353" d="M739.719 649.858a10.452 10.452 0 1 1 9.016-11.708 10.458 10.458 0 0 1-9.016 11.708z" transform="translate(-619.778 -593.883)" style="stroke-width:1.3px;fill:#ec8658;stroke:#284356;stroke-linecap:round;stroke-linejoin:round"/>
        </g>
        <path data-name="Path 354" d="m737.437 637.815-.444-3.409c1.276-.165 1.91.427 2.018 1.267l1.381-.178a2.937 2.937 0 0 0-3.579-2.47l-.132-1.032-1.381.18.135 1.032c-4.089.552-3.274 6.735.8 6.182l.442 3.4a1.527 1.527 0 0 1-1.9-1.279l-1.38.182a2.92 2.92 0 0 0 3.463 2.482l.135 1.032 1.382-.179-.135-1.032c3.958-.518 3.82-6.818-.805-6.178zm-1.823-3.226.445 3.418a1.724 1.724 0 0 1-.445-3.419zm2.448 8.018-.444-3.414c2.782-.404 2.64 3.126.444 3.413z" transform="translate(-618.301 -592.98)" style="fill:#fff"/>
        <path data-name="Path 355" d="M728.067 633.108a24.617 24.617 0 0 1 6.08-1.982c3.38-.61 6.59.448 4.032 2.879-.92.874-3.467 1.471-5.578 2.895-1.5 1.014-3.475 3.387-5.706 4.117" transform="translate(-620.091 -593.297)" style="stroke-width:1.312px;fill:#f4cfb3;stroke:#284356;stroke-linecap:round;stroke-linejoin:round"/>
        <path data-name="Path 356" d="M725.335 658a20.092 20.092 0 0 1 11.407-.526" transform="translate(-620.57 -585.355)" style="stroke-width:1.457px;fill:#ec8658;stroke:#284356;stroke-linecap:round;stroke-linejoin:round"/>
    </g>
</svg>
