<svg xmlns="http://www.w3.org/2000/svg" width="311.73" height="665" viewBox="0 0 311.73 665">
    <path data-name="Exclusion 2" d="M-18014-6083h-224v-606.439h10.426v-2.088l-1.723-.368c-.041-1.969-.041-4.388-.041-6.154v-5.45l.121-6.112-.738-.451-8.047 2.4V-6748h224v665zm-169.172-613.04-.205 5.248a14.067 14.067 0 0 0 7.543 2.01 12.328 12.328 0 0 0 7.146-1.793 6.249 6.249 0 0 0 2.652-5.422 6.276 6.276 0 0 0-1.254-4.069 7.5 7.5 0 0 0-4.115-2.406l-2.295-.616c-2.721-.751-3.279-1.527-3.279-2.46 0-1.291 1.053-2.093 2.744-2.093a8.683 8.683 0 0 1 2.01.207l.9 3.646h3.77l.326-4.631a15.078 15.078 0 0 0-6.807-1.642 10.632 10.632 0 0 0-6.783 2.01 6.348 6.348 0 0 0-2.357 5.087 6.166 6.166 0 0 0 4.961 6.352l2.34.616c2.762.744 3.318 1.572 3.318 2.667 0 1.453-1.043 2.129-3.281 2.129a7.792 7.792 0 0 1-2.953-.575l-.654-4.264h-3.73zm-10.742-14.022c-5.48 0-11.027 3.633-11.027 10.578 0 6.5 4.184 10.7 10.66 10.7 4.215 0 7.207-1.614 8.895-4.8l-1.6-1.559a6.47 6.47 0 0 1-4.678 1.927c-2.793 0-4.676-2.13-5.041-5.7h11.4a9.141 9.141 0 0 0 .205-2.171 9.271 9.271 0 0 0-2.207-6.352 8.6 8.6 0 0 0-6.607-2.623zm-20.336 0c-7.014 0-11.727 4.3-11.727 10.7a10.316 10.316 0 0 0 3.217 7.963 11.015 11.015 0 0 0 7.4 2.614c4.105 0 7.047-1.614 8.738-4.8l-1.6-1.559a5.838 5.838 0 0 1-4.182 1.927 4.774 4.774 0 0 1-3.916-1.818 8.472 8.472 0 0 1-1.455-5.233 9.992 9.992 0 0 1 1.527-5.913 3.748 3.748 0 0 1 2.938-1.671h.166l.082 1.72c.174 3.862 2.012 4.673 3.523 4.673a2.973 2.973 0 0 0 3.119-2.378c-.215-3.603-3.51-6.225-7.83-6.225zm-19.064-9.469a3.573 3.573 0 0 0-3.77 3.527 3.571 3.571 0 0 0 3.77 3.523 3.575 3.575 0 0 0 3.773-3.523 3.577 3.577 0 0 0-3.773-3.527zm-83.148 30.916c-1.738 0-6.123-.208-9.268-2.134l.252-6.232h4.344l.818 5.165a11.863 11.863 0 0 0 3.895.616 3.383 3.383 0 0 0 3.73-3.486 3.469 3.469 0 0 0-.686-2.294 6.023 6.023 0 0 0-2.225-1.56l-1.8-.86c-4.836-2.3-7.834-4.7-7.834-9.553a7.111 7.111 0 0 1 2.814-5.894 12.782 12.782 0 0 1 7.764-2.141 16.021 16.021 0 0 1 8.16 2.051l-.369 5.9h-4.264l-.738-4.88a6.75 6.75 0 0 0-2.541-.492 3.5 3.5 0 0 0-3.689 3.362 3.378 3.378 0 0 0 .848 2.384 7.789 7.789 0 0 0 2.512 1.677l2.051.984a16.437 16.437 0 0 1 5.605 3.792 7.468 7.468 0 0 1 1.734 5.144 7.53 7.53 0 0 1-2.729 6.039c-1.947 1.601-4.768 2.412-8.385 2.412zm23.7-.166a10.71 10.71 0 0 1-7.631-2.813 10.635 10.635 0 0 1-3.025-7.889 10.029 10.029 0 0 1 3.5-7.933 11.8 11.8 0 0 1 7.529-2.645 8.6 8.6 0 0 1 6.605 2.63 9.264 9.264 0 0 1 2.211 6.352 8.93 8.93 0 0 1-.207 2.171h-11.4c.361 3.568 2.246 5.7 5.041 5.7a6.442 6.442 0 0 0 4.672-1.927l1.6 1.559a8.491 8.491 0 0 1-3.586 3.644 11.375 11.375 0 0 1-5.315 1.151zm-.119-19.063c-1.484 0-2.227 2.1-2.336 6.6h1.922c1.941 0 2.5-.616 2.5-2.746-.005-2.41-.783-3.855-2.092-3.855zm54.885 18.407h-1.01v-2.088l1.01-.225v2.313zm-11.588 0h-3.689l-7.3-17.629-1.969-.409v-1.927h12.342v1.927l-2.176.492 3.408 9.428 3.154-9.47-2.252-.451v-1.927h7.7v1.927l-2.457.409-6.764 17.628zm-19.271 0h-13.039v-2.088l1.967-.451c.039-1.968.039-4.339.039-6.071v-2.58c0-2.111-.035-2.821-.1-4.235l-.018-.318-2.213-.368v-1.679l9.059-2.833.736.451.328 4.76c1.088-3.6 3.48-5.211 5.369-5.211a3.734 3.734 0 0 1 2.553.887 4.214 4.214 0 0 1 1.258 2.765c-.111 2.085-1.361 3.486-3.111 3.486-1.33 0-2.359-.675-3.443-2.258l-.2-.285a10.8 10.8 0 0 0-2.422 4.838v2.58c0 1.644 0 3.9.037 5.823l3.2.7v2.087zm30.861-2.313v-13.553l.748.125c.08 1.58.125 2.871.125 5.165v1.968c0 1.731 0 4.1-.041 6.112l-.83.184zm43.186-9.493h-1.928c.111-4.5.854-6.6 2.336-6.6 1.311 0 2.092 1.441 2.092 3.854-.006 2.129-.567 2.744-2.506 2.744zm-43.187-4.061-1.461-.244v-1.679l1.461-.436v2.357z" transform="translate(18325.73 6748)" style="fill:#4663bf"/>
</svg>
